<svg xmlns="http://www.w3.org/2000/svg" xml:space="preserve" viewBox="0 0 660 660"><path fill="#010101" d="M327 661H1V1h660v660zm300.606-263.007a5.4 5.4 0 0 1 1.059-1.033c.22-.154.417-.333 1.285-.66q2.489-2.025 4.977-4.054l-1.026-1.206c-1.66 1.117-3.319 2.235-5.679 3.503-1.423.752-2.846 1.503-4.943 2.316-.75.451-1.502.903-2.872 1.198-.728.358-1.455.716-2.88 1.196-1.46.778-2.918 1.556-5.093 2.222-4.778 2.197-9.556 4.395-14.885 6.65-.168.076-.337.15-1.239.059-3.258 1.5-6.516 3.002-10.441 4.615-1.246.522-2.492 1.044-4.488 1.397-4.06 1.642-8.122 3.285-12.734 5.03-.166.088-.331.175-1.242.127-10.442 3.235-20.884 6.47-31.997 9.79-.414.172-.828.344-1.99.316-10.802 2.89-21.603 5.781-33.176 8.699-.75.171-1.5.343-2.72.213-.452.247-.904.494-1.932.83-.178.08-.355.159-1.34.04-9.6 2.063-19.202 4.127-29.409 6.15-.593.11-1.186.22-2.354-.03-2.686.677-5.372 1.353-8.606 2.02-.536.107-1.071.212-2.124-.01-.909.275-1.817.549-3.495.813-.753.14-1.507.282-2.96.096-1.415.344-2.83.688-4.896 1.025-.414.121-.828.242-2.06.043-6.104.955-12.208 1.909-18.956 2.825-.415.108-.83.215-2.088.083-3.748.684-7.496 1.367-11.976 1.939-.724.111-1.449.223-2.908.034-1.455.352-2.91.703-5.048.985-.448.084-.895.167-2.125-.066-2.054.409-4.108.817-6.936 1.148-.77.087-1.54.174-3.12-.107-5.386.66-10.772 1.319-16.92 1.95-.752.112-1.504.224-3.127.045-3.698.355-7.396.71-11.742 1.007-.422.087-.844.174-2.17-.015-4.06.358-8.12.717-12.915 1.04-.72.137-1.44.274-3.07.11-5.41.275-10.819.55-17.123.757-2.655.195-5.31.39-8.864.238-24.171-.019-48.342-.043-72.514-.039-.97 0-1.938.272-3.786.22-3.658-.113-7.316-.225-11.66-.766-6.82-.033-13.642-.067-21.057-.36-.43-.032-.858-.062-1.894-.613-3.125-.045-6.25-.09-10.157-.343-1.078-.063-2.155-.127-3.838-.711-3.12-.076-6.24-.153-10.022-.422-.458-.004-.916-.009-1.98-.528-3.117-.084-6.235-.168-10.092-.45-.763-.037-1.527-.074-2.862-.62-1.805-.085-3.61-.17-6.08-.432-.457.006-.913.012-1.896-.491-1.196-.044-2.393-.088-4.36-.419-1.37-.02-2.738-.041-4.65-.602-4.392-.653-8.776-1.355-13.175-1.95-7.798-1.055-15.604-2.045-23.992-3.345-.426-.065-.852-.131-1.722-.698-.847-.017-1.694-.034-3.276-.278-.768-.053-1.535-.105-2.812-.72l-68.81-17.609-.546 1.243c4.34 2.135 8.68 4.27 13.436 6.81.518.252 1.036.503 1.836 1.367 4.946 2.264 9.892 4.528 15.353 7.186.608.218 1.215.436 2.152 1.19.765.196 1.53.393 2.754.864.174.035.35.07.89.677 1.517.435 3.033.87 5.018 1.581.35.094.699.189 1.43.865 6.408 2.14 12.816 4.282 19.81 6.694.425.053.85.106 1.607.709.595.063 1.191.125 2.461.5 1.885.55 3.77 1.1 6.108 2.198 7.41 1.787 14.82 3.575 22.82 5.62.423.06.845.119 1.642.695.592-.01 1.185-.021 2.372.221.425.054.85.108 1.677.722.87.085 1.74.17 3.228.479.435.042.87.084 1.779.398.178-.04.356-.08 1.246.067 1.452.162 2.905.325 4.579.928.582 0 1.165.001 2.381.262 1.127.121 2.254.242 3.62.8a10 10 0 0 1 2.215.197l.489.095s.497-.02 1.005.506c9.729 1.419 19.457 2.837 29.784 4.515.43.047.859.094 1.858.727 5.228.345 10.456.69 16.089 1.197l.432.056s.43-.067.977.317c1.63.097 3.261.194 5.52.476.65.023 1.301.046 2.622.499 3.257.143 6.514.287 10.293.583.36-.012.721-.024 1.593.38.621-.068 1.243-.136 2.609-.014.763-.014 1.527-.03 2.879.436 2.807.069 5.614.138 9.21.334 2.403.052 4.806.105 7.832.665 4.822.083 9.645.166 15.176.47.739-.008 1.477-.016 2.796.54 18.17.068 36.338.143 54.507.174.589 0 1.178-.457 2.485-.59 1.436-.15 2.873-.298 4.998-.018 4.097-.36 8.194-.719 13.138-.958 3.062-.205 6.123-.41 9.817-.239 2.469-.312 4.938-.624 8.071-.846 1.102-.186 2.204-.371 3.92-.173 4.471-.64 8.942-1.28 14.166-1.84.747-.101 1.495-.203 3.02.011 4.852-.815 9.704-1.63 15.097-2.346.36-.055.721-.11 1.706.21 2.445-.285 4.915-.435 7.33-.88 8.69-1.6 17.361-3.299 26.695-4.942.41-.14.82-.28 1.922-.143 1.136-.31 2.272-.62 4.154-.88.718-.184 1.435-.367 2.897-.313 2.458-.563 4.916-1.125 8.064-1.705.442-.12.884-.24 1.937-.052.79-.311 1.582-.622 3.025-.947.41-.136.82-.272 1.993-.087 6.957-1.745 13.915-3.49 21.616-5.296 1.916-.524 3.831-1.049 6.366-1.357.57-.251 1.138-.503 2.405-.864.663-.24 1.326-.48 2.42-.44.276-.167.552-.335 1.537-.573.678-.214 1.356-.428 2.558-.365.472-.267.945-.535 2.156-.893 1.405-.45 2.81-.902 4.983-1.149 5.654-1.714 11.308-3.429 17.703-5.203 1.172-.39 2.343-.782 4.242-1.007 6.618-2.393 13.235-4.786 20.504-7.258.592-.265 1.185-.53 2.51-.647 10.813-4.246 21.794-8.12 32.39-12.851 9.182-4.1 17.93-9.173 27.431-14.013.495-.328.99-.656 2.2-.911 2.563-1.542 5.125-3.085 8.06-4.711 0 0 .273-.267.818-.213.226-.263.453-.526 1.093-.893 0 0 .304-.298 1.007-.263 4.19-2.874 8.38-5.748 13.005-8.783.289-.165.466-.41 1.18-.765.758-.35 1.517-.7 2.825-1.188m-388.39-120.038c-.64 1.05-1.28 2.1-2.266 3.4 0 0-.118.413-.77.591-8.96 12.842-15.647 26.796-17.976 42.299-1.26 8.391-.542 17.08-.836 26.297.075.438.15.876-.14 2.114 1.533 6.621 2.278 13.56 4.78 19.793 4.083 10.175 9.552 19.712 19.463 26.467.184.012.367.024.638.547.282.188.564.376.953 1.224 11.746 9.542 24.863 16.1 40.456 18.592.363.007.726.013 1.268.49a24 24 0 0 1 2.737.58c.356-.01.713-.022 1.39.45 1.045.152 2.09.303 3.603.671.337-.028.675-.057 1.56.424 4.936.617 9.878 1.789 14.81 1.744 12.542-.115 25.08-.775 38.106-1.093.32-.08.64-.16 1.596.173 3.613-.795 7.227-1.59 11.359-2.274.34-.08.679-.16 1.464.088.995-.41 1.991-.82 3.528-1.16.35-.09.7-.18 1.622.022 3.658-1.006 7.36-1.874 10.965-3.044 13.479-4.377 26.88-8.954 39.048-17.37 0 0 .309-.337 1.353-.449 3.652-.99 2.901 1.492 2.587 3.408-.76 4.641-1.635 9.263-2.496 14.075h54.38c1.34-8.878 2.646-17.528 4.204-26.788-.017-.437-.034-.873.43-1.872 1.83-9.716 3.527-19.46 5.536-29.14 1.386-6.68 3.202-13.272 5.703-19.752 24.433-.04 48.866-.08 73.779.36l5.355.559c-.764 4.38-1.456 8.393-2.166 12.404-2.207 12.458-4.421 24.916-6.849 38.08.008.737.016 1.474-.51 2.66-.092.878-.184 1.757-.547 3.235.012.435.023.87-.437 1.902l-1.803 10.296c2.415-.55 4.006-.79 5.518-1.274 16.401-5.26 32.712-10.822 49.225-15.701 5.768-1.705 7.211-4.922 6.77-10.756-.008-.435-.017-.87.493-1.854.552-2.765 1.175-5.518 1.644-8.297 2.2-13.039 4.357-26.084 6.752-39.704-.009-.614-.017-1.227.528-2.321.238-.62.58-1.22.7-1.863 4.908-26.089 9.792-52.181 14.688-78.272 1.053-5.608 2.142-11.21 3.255-17.033h-57.208c-.404 2.129-.789 4.055-1.134 5.989-3.284 18.42-6.562 36.843-10.07 55.879.017.433.034.867-.373 1.916l-1.702 7.178h-78.982c.385-4.556.743-8.787 1.39-13.61.004-.436.008-.872.516-1.87.571-2.93 1.207-5.849 1.703-8.792 2.17-12.87 4.297-25.748 6.63-39.21.011-.611.022-1.224.572-2.338l.958-5.23c-17.723 0-34.656.046-51.588-.045-2.803-.015-3.579 1.164-4.043 3.753-2.752 15.34-5.804 30.626-8.573 45.963-2.203 12.204-4.146 24.454-6.445 37.384.01.736.021 1.473-.448 2.764-.9 4.172-1.939 8.32-2.67 12.522-1.972 11.322-3.812 22.667-5.899 34.622.016.431.032.862-.478 1.838l-4.994 24.842c-6.427-9.392-11.78-18.713-16.782-28.22-1.96-3.726-3.802-3.98-7.382-2.01-7.246 3.986-14.477 8.484-22.296 10.83-11.162 3.347-22.847 4.951-35.041 7.19-.733.088-1.466.176-2.992-.12-1.152.102-2.303.203-4.306.128-2.03.043-4.062.086-6.753-.301-8.142-2.01-16.366-3.747-24.39-6.153-3.556-1.066-6.707-3.484-10.316-5.682 0 0-.444-.178-.57-.833-1.65-1.451-3.298-2.903-5.134-4.817 0 0-.401-.296-.397-.964-1.616-2.666-3.757-5.152-4.737-8.034-2.043-6.01-3.473-12.228-5.029-19.219-.051-1.44-.103-2.879.284-4.843.082-1.812.164-3.624.496-5.865.112-.326.116-.653.482-1.515 1.055-3.653 1.538-7.61 3.278-10.902 4.525-8.56 9.602-16.829 14.857-25.537.009-.17.017-.342.612-.617.381-.45.763-.9 1.814-1.39 2.506-2.179 5.013-4.358 8.017-6.693.107-.137.214-.274 1.014-.347 21.004-12.938 43.957-14.998 67.48-10.688 9.638 1.766 18.744 6.43 28.376 10.133 0 0 .44.124.505.666.714.231 1.428.463 2.852.687.69-.623 1.38-1.247 2.713-1.848l28.298-26.276c-6.467-6.557-13.27-10.823-20.848-13.981-13.752-5.731-27.891-9.643-43.452-9.531-.355-.005-.711-.011-1.59-.579-24.801-2.319-49.103.471-72.382 9.1-10.698 3.965-20.491 10.369-31.123 15.785 0 0-.274.348-.953.314-1.873 1.523-3.746 3.046-6.038 4.684 0 0-.277.334-.927.365-1.556 1.505-3.113 3.01-5.198 4.739-.384.42-.768.842-1.782 1.27-1.084 1.242-2.169 2.484-3.77 4.039-.638.767-1.275 1.534-2.587 2.422-2.102 2.678-4.204 5.356-6.138 8.145 0 0-.15-.134-.778-.015m-123.482 145.86c18.654.399 37.196.031 55.519-4.421 18.261-4.438 35.264-11.516 51.455-21.886l-21.018-35.861c-1.727 1.049-3.047 1.742-4.25 2.597-21.404 15.214-45.295 20.448-71.035 16.863-33.297-4.637-45.83-27.823-41.058-57.9 5.181-32.654 33.29-53.578 64.876-56.983 20.881-2.251 40.836.674 59.132 11.834 1.17.714 3.908.694 4.737-.148 9.317-9.455 18.402-19.138 27.881-29.11-5.965-5.452-13.62-9.93-21.932-13.38-16.28-6.756-33.43-8.457-50.832-8.767-30.901-.55-60.37 5.025-86.905 21.59-39.502 24.662-62.074 58.781-57.02 107.102 2.477 23.684 15.297 41.018 35.747 52.874 16.63 9.64 34.964 13.392 54.703 15.596"/><path fill="#f9f9f9" d="M496.598 286.927c-.003.436-.007.872-.471 1.773-1.034 3.196-1.582 5.932-2.186 8.656-1.288 5.802-.842 6.474 5.033 6.484 23.404.04 46.808.05 70.211.016 6.856-.01 8.386-2.206 7.12-9.805-.017-.433-.034-.867.403-1.734.762-1.357 1.185-2.26 1.361-3.209 3.508-18.878 6.986-37.762 10.482-56.708h54.17c-4.45 23.842-8.886 47.29-13.177 70.763-1.54 8.423-2.727 16.91-4.075 25.368.009.614.017 1.227-.42 2.323-2.323 10.207-4.333 19.91-6.028 29.667-1.058 6.091-1.643 12.265-2.44 18.401.008.435.017.87-.401 1.776-.527 6.824-4.81 8.696-10.082 10.198-8.446 2.406-16.699 5.48-25.086 8.104-7.79 2.437-15.648 4.655-24.32 7.219.526-2.424.966-3.668 1.024-4.93.066-1.4-.217-2.815-.348-4.224-.012-.435-.023-.87.382-1.667.5-1.348.582-2.335.664-3.322-.008-.737-.016-1.474.405-2.699.941-2.037 1.638-3.552 1.937-5.142 1.981-10.52 3.879-21.056 5.8-31.587.866-4.742 1.725-9.484 2.737-15.05l-7.723.745c-24.433.04-48.866.08-74.112-.12-1.896 1.634-3.55 3.39-3.962 5.4-1.695 8.256-3.126 16.572-4.431 24.9-1.01 6.438-1.688 12.927-2.514 19.393.017.437.034.873-.394 1.774-2.19 8.674-3.937 16.885-5.662 24.996h-50.57c1.574-8.852 3.164-17.296 4.556-25.773 1.084-6.6 1.92-13.24 2.867-19.862-.016-.43-.032-.862.385-1.742a677 677 0 0 0 6.23-30.452c1.001-5.562 1.603-11.196 2.386-16.798-.01-.736-.021-1.473.422-2.706 1.64-5.63 3.011-10.73 3.98-15.905 4.116-21.96 8.06-43.95 12.28-65.89.258-1.339 2.354-3.305 3.618-3.322 16.095-.226 32.194-.15 48.328-.15l.491 4.441c-.01.612-.02 1.225-.447 2.345-2.29 10.227-4.296 19.923-5.989 29.673-1.056 6.085-1.639 12.252-2.434 18.382M115.261 423.791c-19.267-2.18-37.601-5.931-54.231-15.572-20.45-11.856-33.27-29.19-35.748-52.874-5.053-48.32 17.52-82.44 57.02-107.101 26.536-16.566 56.005-22.142 86.906-21.59 17.401.31 34.552 2.01 50.832 8.766 8.311 3.45 15.967 7.928 21.932 13.38-9.48 9.972-18.564 19.655-27.88 29.11-.83.842-3.567.862-4.738.148-18.296-11.16-38.25-14.085-59.132-11.834-31.586 3.405-59.695 24.329-64.876 56.983-4.772 30.077 7.761 53.263 41.058 57.9 25.74 3.585 49.63-1.649 71.035-16.863 1.203-.855 2.523-1.548 4.25-2.597l21.018 35.861c-16.191 10.37-33.194 17.448-51.455 21.886-18.323 4.452-36.865 4.82-55.99 4.397"/><path fill="#fefefe" d="M260.118 257.324s.277-.334.84-.336c2.03-.764 3.498-1.526 5.178-1.97 7.137 1.7 8.793.936 12.332-4.57.707-1.102 2.195-2.08 3.485-2.356 3.505-.752 5.649-2.527 6.235-6.44 1.73-.78 3.23-1.309 4.963-1.529 7.315 2.304 14.139-.242 18.09-6.474 2.78-.692 5.27-1.154 7.832-1.257 3.183 2.63 5.5 2.187 7.135-1.835 1.802-.347 3.3-.478 4.803-.231.884 4.125 3.797 4.598 5.91 2.53 5.229-5.12 10.33-2.452 15.53-.627 4.96 1.741 10.618.219 15.001-4.17 1.62-.137 2.79-.263 3.962-.39.356.006.712.012 1.405.356.622.525.905.711 1.224 1.27 3.192 4.945 5.764 5.013 8.285.58.78.043 1.226.088 1.71.493 2.032 5.995 6.655 6.075 11.406 5.602 4.27-.426 7.43 1.593 7.312 5.525-.335 11.278 2.097 22.742-2.152 33.72-1.448-.72-2.584-1.34-3.709-2.344-2.172-2.558-4-5.484-6.625-6.727-3.579-1.693-7.73-2.354-11.713-2.889-1.037-.14-2.357 1.834-3.886 2.846-.783-.064-1.227-.137-1.66-.62.1-4.637.218-8.863.27-13.09.048-3.952-.435-7.974.141-11.843.974-6.532-1.233-8.6-8.455-6.561.295 10.408-1.107 21.092 3.633 31.051-1.456-.116-2.512-.252-3.59-.724-1.97-2.273-3.918-4.21-5.866-6.146-2.773 3.01-8.985.15-10.558 5.961-3.482.345-6.538.666-9.629.607-1.081-2.545-2.128-4.712-3.466-7.48-1.41 3.623-2.437 6.262-3.81 8.935-1.043.093-1.737.152-2.677-.13-7.087-1.858-13.79 1.342-16.134 7.364-1.37.722-2.52 1.22-4.026 1.547-8.35-1.627-10.868.36-10.96 8.342-.435.933-.731 1.612-1.027 2.29-.382.45-.764.9-1.767 1.255-2.198.268-4.782.17-5.193 1.066-3.646 7.966-14.798 10.959-14.317 21.597.017.382-.47.946-.866 1.164-4.982 2.747-4.304 7.7-4.68 12.164-.458 5.424-1.016 10.877-.89 16.302.098 4.217.956 8.463 1.92 12.593.444 1.898 2.061 3.494 2.962 5.318 4.017 8.132 9.25 14.757 19.304 15.925.223.039.651.189.664.55.704 2 1.394 3.64 2.086 5.278 2.37 5.623 10.253 6.823 15.286 2.305 1.78.384 3.198.738 4.68 1.445 1.065 1.053 1.973 2.033 3.084 2.4 3.38 1.114 6.94 1.73 10.241 3.022 4.9 1.916 9.935.223 13.075-4.745 2.47-.079 4.508-.092 6.61.27 4.659 4.639 12.521 2.89 18.253-3.651.734-.138 1.152-.224 1.783.036 4.34.783 7.373 2.588 7.732 6.837 4.175-2.844 9.413-4.584 11.29-8.113 2.917-5.486 7.652-5.587 12.816-7.715.405 2.455.996 4.462 1.024 6.477.112 7.87.046 15.744.046 23.95 0 .777 0 1.222-.396 1.674-1.344.25-2.292.49-3.24.736-5.949 1.545-11.667 4.905-18.115 2.8-4.076-1.33-5.007.871-5.222 4.117-.097 1.473.004 2.96-.261 4.678-3.1 1.07-5.922 1.9-8.958 2.45-4.273-2.336-8.205-4.887-12.98-1.859-1.708 1.084-4.09 1.232-5.59 2.492-2.478 2.081-4.488 2.778-6.53-.23-2.138-3.151-5.062-3.656-8.173-2.063-2.754 1.41-5.398 2.033-8.544 2.307-3.104.27-6.015 2.757-9.407 4.316-2.786-.287-5.177-.619-7.621-1.292-2.458-4.741-6.192-5.676-10.928-5.04-7.674 1.032-15.09 1.068-19.626-7.128-.58-1.047-3.663-2.03-4.305-1.498-3.396 2.815-6.662 2.084-10.237.748-.775-.29-1.937.458-3.235.62-1.436-.757-2.557-1.406-3.663-2.485-.06-7.183-3.843-9.43-10.406-6.52a13 13 0 0 0-1.607-.13c-.283-.188-.565-.376-.734-1.161 1.404-6.478-.799-8.69-8.333-9.137-.867-1.392-1.532-2.523-1.891-3.834.326-1.084.681-2.163.314-2.864-2.89-5.514-5.96-10.933-8.853-16.445-.412-.786-.146-1.918-.241-2.885-.536-5.47-.909-10.966-1.765-16.386-.197-1.246-2.07-2.228-3.236-3.754-.028-2.127.007-3.831.407-5.558 4.661-3.078 5.227-11.434 1.411-15.367.351-1.787.67-3.21 1.355-4.676 1.435-.928 2.93-1.6 3.498-2.735 2.837-5.675 5.431-11.471 8.377-17.105.756.707 1.245 1.293 1.735 2.255v3.017c-.241 1.5-.16 2.854-.782 3.674-1.979 2.61-1.088 4.838 1.462 5.411 1.74.392 5.218-.76 5.663-2.018 1.108-3.134 1.823-6.961 1.005-10.064-.788-2.984-.96-5.031.596-7.747.784-1.369-.129-3.71-.292-5.835-3.904 2.907-6.779 5.047-9.813 6.927-.51-.466-.862-.67-1.134-1.23 1.738-3.108 3.397-5.864 5.484-8.585 6.254.408 4.507-3.92 4.875-7.201.26-.48.493-.671 1.22-.768 3.337-.431 6.246-.879 8.617-1.244 1.082-2.146 1.54-4.825 2.853-5.345 5.15-2.04 5.746-5.863 5.255-10.736.076-.61.092-.958.11-1.307M264 314.5s0-.5.651-.832c.783-2.556 1.566-5.112 2.349-8.468v-4.08c.333-3.623.99-7.25.934-10.867-.124-8.04-.565-16.077-.993-24.109-.053-.994-.815-1.951-1.248-2.926-1.048.577-2.427.913-3.065 1.789-.84 1.153-1.45 2.706-1.547 4.128-.472 6.947-.74 13.909-1.665 20.927-.139.646-.277 1.292-.403 2.713.334 3.235.443 6.515 1.06 9.696.753 3.886 1.932 7.69 3.144 11.966.2.273.46.46.791 1.216l.92 1.972.87-.59c-.6-.679-1.199-1.357-1.798-2.535m27.584 74.438c.139-.646.277-1.292.343-2.62l-2.39-1.936-2.916 4.306c2.127.152 3.253.232 4.963.25m20.414 12.88c-.656 3.357-1.532 6.695-1.823 10.083-.08.926 1.442 2.456 2.533 2.837.644.225 2.701-1.24 2.72-1.982.104-3.912-.24-7.836-.428-12.506 0-.75 0-1.5.648-2.34.117-.97.235-1.94.352-3.72-.667-2.063-1.333-4.127-2.377-6.671a721 721 0 0 0-3.202 3.044c-.14 2.812-.28 5.625-.337 9.078.639.453 1.277.906 1.914 2.177m-19.414 3.12c.139-.646.277-1.292.416-2.605v-2c0-.444 0-.889.547-1.82 1.71-4.736-1.687-5.797-6.082-7.79-.163 4.782-.39 8.707-.389 12.633.001 1.779.456 3.558.704 5.337 1.407-1.231 2.813-2.462 4.804-3.755m-28.937-16.28c-4.82 3.674-2.418 8.805-2.259 13.256.065 1.834 2.63 3.579 4.056 5.364l1.556-.853c0-6.142 0-12.283-.042-19.02-.32-.468-.639-.937-.941-2.215.596-4.418 1.623-8.83 1.694-13.257.124-7.693-.359-15.396-.556-23.095-.1-3.907-.157-7.815-.188-11.722-.031-3.993-.007-7.985-.007-12.768-4.372 2.136-6.405 3.622-5.562 7.826.817 4.077.604 8.42.413 12.628-.438 9.654-1.277 19.29-1.659 28.945-.136 3.444.411 6.95 1.023 10.36.14.776 1.842 1.27 2.825 2.56 0 .444 0 .889-.353 1.991m-22.64-44.947c.166-5.75 2.625-11.504 1.014-17.713l-6.915 6.667-2.104-.712c0 9.86-.049 19.72.038 29.58.019 2.121.62 4.23.791 6.359.456 5.702.745 11.42 1.325 17.108.074.724 1.473 1.805 2.282 1.826.823.02 2.228-.928 2.415-1.69.741-3.012 1.23-6.103 1.58-9.19.576-5.07 1.155-10.151 1.375-15.243.133-3.096-.328-6.23-.672-9.331-.252-2.274-.748-4.522-1.129-7.66M366 406.478c.23 2.718-.839 5.99 2.63 7.386 1.566-2.935 3.689-5.366 4.121-8.067.77-4.806.49-9.777.7-14.676.2-4.65-2.42-6.594-7.452-5.1zm-20.274-147.24c3.56-7.612 1.55-15.742 2.064-23.63.051-.79-1.474-2.164-2.497-2.454-3.735-1.056-5.67 2.314-3.876 7.318.924 2.578 1.383 4.483.12 7.34-1.16 2.626-.638 6.195-.158 9.239.167 1.06 2.423 1.792 4.347 2.187m-35.694-16.41-3.396 8.653c3.072 2.262 4.314 6.165 2.628 11.004-.273.784.912 2.482 1.855 3.118.49.332 2.123-.51 2.894-1.205 2.567-2.313 3.758-4.84 1.58-8.322-.906-1.447-.936-3.61-.905-5.44.063-3.717.438-7.43.685-11.143l-1.7-.515c-1.176 1.024-2.352 2.049-3.64 3.85m33.782 173.12c1.393-1.92 3.76-3.727 3.998-5.782.73-6.268.917-12.642.69-18.952-.06-1.705-2.337-3.33-3.597-4.993-1.291 1.055-2.996 1.878-3.753 3.23-.716 1.279-.49 3.111-.584 4.706-.433 7.37 7.67 13.746 3.246 21.79m-69.88-140.524 1.443 3.035c-.04-10.346-.04-10.346-3.966-11.334a658 658 0 0 1 2.523 8.3m84.284 128.279c2.671-1.633 1.487-3.05-.522-3.705-1.232-.401-2.807.247-4.228.424.886.907 1.737 1.855 2.678 2.701.343.308.902.376 2.072.58m-105.457-88.075 3.05-2.613-1.628-1.66c-.636 1.246-1.272 2.491-1.422 4.273m18.448 87.524 3.348.464-.282-3.197c-1.051.667-2.103 1.334-3.066 2.733m3.613-26.65q-1.027-.554-2.056-1.107l-.45 1.692c.783.03 1.566.06 2.506-.585m61.399 32.829-1.8.77 1.467 1.485c.264-.597.527-1.194.333-2.255m.694-8.7-1.724.75 1.437 1.432c.25-.573.5-1.147.287-2.182m-84.659-17.701 1.398 1.873.94-.866c-.637-.497-1.274-.994-2.338-1.007m52.512-137.326 2.033-1.44-.952-.977c-.497.666-.993 1.332-1.08 2.417m13.595 152.962 1.537.8q.33-.8.664-1.598c-.644.091-1.288.183-2.2.798m-43.652-104.104-.335 1.727 1.227.015c-.097-.578-.195-1.156-.892-1.742m-26.4 67.014-1.014 1.636.821.404c.205-.534.41-1.068.193-2.04m85.958-118.383 1.492-.164-.343-1.335c-.425.302-.85.603-1.149 1.5m-61.07 142.51.012-1.175c-.162-.002-.466-.014-.467-.003-.03.39-.032.781.455 1.178m-11-63 .013-1.176c-.163-.002-.467-.014-.468-.003-.03.39-.032.782.455 1.18"/><path fill="#f4a93d" d="M140.053 470.719c-1.452-.163-2.905-.326-4.778-.76-.713-.202-1.007-.135-1.3-.067-.435-.042-.87-.084-1.764-.46-1.362-.458-2.265-.581-3.168-.704-.426-.055-.852-.109-1.664-.518-1.044-.364-1.702-.373-2.359-.383-.423-.06-.845-.119-1.723-.606-7.91-2.198-15.364-3.97-22.819-5.74-1.885-.55-3.77-1.1-6.057-2.052-1.065-.485-1.727-.566-2.39-.647-.425-.054-.85-.107-1.722-.586-6.879-2.567-13.312-4.709-19.745-6.85-.35-.094-.698-.189-1.457-.72-1.93-.862-3.453-1.289-4.975-1.715-.175-.035-.35-.07-.878-.548-1.145-.615-1.937-.787-2.73-.959-.607-.217-1.214-.435-2.185-1.156-5.332-2.767-10.302-5.031-15.272-7.295-.518-.252-1.036-.503-1.82-1.273-1.067-1.391-1.87-2.264-3.526-4.067 9.953 2.876 18.6 5.719 27.422 7.836 10.857 2.605 21.86 4.605 32.8 6.867.767.053 1.534.105 2.84.46 1.42.361 2.301.42 3.182.477.426.066.852.132 1.763.627 7.422 1.654 14.332 3.065 21.303 4.044 5.267.74 10.612.928 15.922 1.36 1.369.022 2.738.043 4.62.48 1.8.448 3.087.48 4.374.51.456-.005.912-.01 1.948.286 2.41.414 4.242.526 6.073.638.763.037 1.527.074 2.956.417 3.788.424 6.91.542 10.031.66.459.003.917.008 1.998.325 3.75.418 6.877.524 10.004.63 1.078.063 2.155.127 3.88.539 3.802.404 6.96.459 10.117.514.429.03.858.061 1.784.54 7.414.412 14.33.377 21.245.342 3.659.112 7.317.224 11.63.737 1.446.596 2.236.962 3.026.963 23.33.037 46.661.056 69.992-.008 1.177-.004 2.352-.775 3.527-1.189 2.655-.195 5.31-.39 8.725-.285 6.265-.052 11.769-.404 17.273-.756.72-.137 1.439-.274 2.84-.142 4.834-.165 8.986-.599 13.138-1.033.422-.087.844-.174 1.878.024 4.408-.144 8.205-.572 12.002-1 .751-.113 1.503-.225 2.902-.09 6.126-.444 11.605-1.136 17.084-1.828.77-.088 1.539-.175 2.957-.006 2.79-.192 4.93-.64 7.07-1.087.448-.084.895-.167 1.925.014 2.121-.14 3.661-.544 5.201-.95.724-.111 1.449-.223 2.824-.037 4.49-.467 8.33-1.231 12.168-1.996.415-.108.83-.215 1.859-.054 6.796-.745 12.978-1.76 19.16-2.773.414-.122.828-.243 1.779-.146 2.044-.16 3.551-.539 5.059-.917.753-.14 1.507-.281 2.851-.195 1.534-.085 2.478-.399 3.421-.712.536-.106 1.071-.211 2.287-.15 3.288-.498 5.895-1.163 8.501-1.828.593-.11 1.186-.22 2.504-.133 2.843-.083 5.004-.188 7.076-.674 7.488-1.756 14.946-3.64 22.415-5.475.178-.08.355-.159 1.065-.23.978-.174 1.424-.356 1.87-.537.75-.171 1.5-.343 2.879-.297 6.586-1.069 12.606-2.127 18.484-3.712 5.021-1.354 9.88-3.313 14.81-5.004.415-.172.829-.344 1.991-.509 7.445-1.658 14.202-3.12 20.815-5.066 3.845-1.13 7.46-3.037 11.18-4.595.165-.088.33-.175 1.16-.285 4.717-1.628 8.768-3.233 12.82-4.838 1.246-.523 2.492-1.045 4.464-1.535 3.967-1.472 7.208-2.976 10.448-4.48.169-.075.338-.15 1.168-.216 5.421-2.175 10.18-4.361 14.939-6.547 1.459-.779 2.918-1.557 5.039-2.363a15 15 0 0 0 2.837-1.011c.751-.452 1.502-.904 2.61-.983.403.907.45 1.443.496 1.978-.065.326-.242.572-1.114.826-4.764 2.945-8.944 5.802-13.125 8.659 0 0-.304.298-.779.34-.703.293-.933.545-1.163.797 0 0-.273.267-.837.258-3.113 1.543-5.662 3.095-8.21 4.647-.496.328-.99.656-2.137 1.065-2.177.709-3.726 1.288-5.226 1.973-12.074 5.512-24.125 11.077-36.214 16.556-6.121 2.775-12.306 5.409-18.463 8.106-.592.265-1.185.53-2.515.734-7.323 2.343-13.908 4.748-20.494 7.153-1.171.391-2.342.782-4.295 1.053-6.418 1.626-12.054 3.373-17.69 5.119-1.405.451-2.81.902-4.848 1.343-1.104.202-1.576.414-2.048.626-.677.214-1.355.428-2.608.591-.92-.071-1.193.06-1.393.343-.663.24-1.326.48-2.652.677-1.229.202-1.795.447-2.36.692-1.917.524-3.832 1.049-6.547 1.473-7.726 1.625-14.653 3.35-21.579 5.076-.41.135-.82.271-1.709.21-1.371.147-2.265.492-3.159.836-.441.12-.883.24-1.919.154-3.133.42-5.674 1.047-8.215 1.673-.717.184-1.434.367-2.743.312-1.812.121-3.033.481-4.254.841-.41.14-.82.281-1.827.177-5.007.356-9.447.797-13.821 1.596-6.768 1.236-13.49 2.717-20.232 4.094-.36.055-.721.11-1.792-.018-5.528.616-10.347 1.415-15.165 2.215-.747.101-1.495.203-2.923.05-5.154.401-9.626 1.056-14.099 1.71-1.102.186-2.204.371-3.95.288-3.117.068-5.588.404-8.06.74-3.06.205-6.122.41-9.927.31-4.856.074-8.97.453-13.084.832-1.436.15-2.873.299-4.993.149-18.81-.363-36.936-.433-55.063-.464-.608 0-1.217.4-1.825.614-.739.009-1.477.017-2.756-.41-5.447-.472-10.352-.507-15.258-.543-2.404-.052-4.807-.105-7.83-.562-3.472-.407-6.325-.408-9.178-.409-.764.015-1.528.03-2.914-.255-1.248-.234-1.873-.169-2.497-.103-.36.012-.721.024-1.61-.366-3.832-.472-7.133-.542-10.435-.612-.65-.022-1.302-.045-2.534-.467-2.215-.42-3.85-.44-5.485-.46l-.43.066s-.432-.056-1.04-.32c-5.756-.683-10.903-1.1-16.05-1.518-.43-.048-.86-.095-1.787-.557-7.825-1.647-15.143-2.935-22.484-4.078-2.407-.375-4.871-.377-7.31-.549l-.497.021s-.49-.095-.816-.451c-.926-.33-1.527-.304-2.127-.277-1.127-.122-2.254-.243-3.796-.742-1.006-.36-1.597-.342-2.188-.324"/><path fill="#f8f9f9" d="M400.917 275.316c3.936-11.079 1.504-22.543 1.84-33.821.116-3.932-3.042-5.95-7.313-5.525-4.751.473-9.374.393-10.99-5.628 18.5 2.612 35.812 7.459 50.195 20.763-4.885 4.551-9.225 8.419-13.36 12.496-4.581 4.517-8.974 9.225-13.45 13.85-.69.624-1.38 1.248-2.574 1.556a18.5 18.5 0 0 0-2.412-.914s-.44-.124-.57-.575c-.543-1.035-.954-1.619-1.366-2.202"/><path fill="#f9f9f9" d="M402 401c0-7.872.066-15.745-.046-23.616-.028-2.015-.619-4.022-1.024-6.477-5.164 2.128-9.9 2.23-12.817 7.715-1.876 3.529-7.114 5.27-11.289 8.113-.36-4.249-3.392-6.054-7.516-7.07 1.902-1.241 3.8-1.903 5.745-2.263 1.014-.252 1.98-.807 3.253-1.545 7.915-3.939 15.522-7.696 23.591-11.68 1.066 1.86 2.178 3.8 2.971 5.89-2.305 4.384 1.22 10.072 6.565 11.089 2.012 3.365 3.63 6.598 5.59 9.608 1.806 2.775 1.914 5.287-.14 7.88 0 0-.31.336-.885.33-1.7.369-2.824.742-4.203.82-3.435.205-6.615.706-9.795 1.206"/><path fill="#f8f9f9" d="M293.107 372.95c-9.83-1.13-15.064-7.755-19.08-15.887-.902-1.824-2.519-3.42-2.963-5.318-.964-4.13-1.822-8.376-1.92-12.593-.126-5.425.432-10.878.89-16.302.376-4.465-.302-9.417 4.68-12.164.396-.218.883-.782.866-1.164-.481-10.638 10.671-13.63 14.317-21.597.41-.897 2.995-.798 4.9-1.014.32.318.312.49-.228.842-5.221 7.136-10.535 13.767-14.37 21.164-2.39 4.61-2.546 10.378-3.704 15.626.104.329.1.656-.449 1.392-.457 2.267-.477 4.123-.497 5.98.051 1.439.103 2.879-.153 5.028.388 4.898.375 9.378 1.953 13.201 2.04 4.944 5.352 9.364 8.116 14.01 0 0 .401.296.467.88 1.775 2.018 3.485 3.453 5.194 4.888 0 0 .444.178.572.661.554 1.111.982 1.74 1.409 2.367"/><path fill="#b9bbbc" d="M375.006 377.1c-1.898.662-3.796 1.324-5.91 2.22-.635.318-1.053.404-2.195.547-6.453 1.129-12.181 2.2-17.91 3.271-2.037.013-4.075.026-6.756-.014-1.003-.165-1.18-.41-1.175-.786 11.461-2.349 23.146-3.953 34.308-7.3 7.819-2.346 15.05-6.844 22.296-10.83 3.58-1.97 5.422-1.716 7.382 2.01 5.002 9.507 10.355 18.828 16.782 28.22 1.664-8.28 3.329-16.561 5.257-25.114-.684 6.35-1.52 12.99-2.604 19.589-1.392 8.477-2.982 16.921-4.557 25.773h50.57c1.726-8.111 3.472-16.322 5.537-24.69-.987 8.49-2.293 17.14-3.632 26.018h-54.381c.861-4.812 1.737-9.434 2.496-14.075.314-1.916 1.065-4.399-3.109-3.352 1.532-2.536 1.424-5.048-.383-7.823-1.96-3.01-3.577-6.243-5.674-9.952-2.274-4.014-4.218-7.454-6.16-10.895l-3.29-5.74c-8.07 3.984-15.677 7.741-23.911 11.711a89 89 0 0 0-2.981 1.211M625.746 328.291c1.071-8.218 2.259-16.705 3.798-25.128 4.29-23.474 8.727-46.92 13.177-70.763h-54.17c-3.496 18.946-6.974 37.83-10.482 56.708-.176.949-.6 1.852-1.247 2.902 2.94-18.295 6.218-36.717 9.502-55.138.345-1.934.73-3.86 1.134-5.989h57.208c-1.113 5.823-2.202 11.425-3.255 17.033-4.896 26.09-9.78 52.183-14.688 78.272-.12.642-.462 1.243-.977 2.103M505.738 236.276c-.424-1.142-.578-2.536-.76-4.19-16.135 0-32.234-.076-48.329.15-1.264.017-3.36 1.983-3.618 3.323-4.22 21.938-8.164 43.93-12.28 65.889-.969 5.175-2.34 10.275-3.86 15.555 1.725-12.083 3.668-24.333 5.871-36.537 2.77-15.337 5.821-30.623 8.573-45.963.464-2.59 1.24-3.768 4.043-3.753 16.932.091 33.865.045 51.588.045-.354 1.933-.656 3.582-1.228 5.481"/><path fill="#f8f9f9" d="M314.98 422.707c2.996-1.514 5.907-4.002 9.011-4.271 3.146-.274 5.79-.897 8.544-2.307 3.11-1.593 6.035-1.088 8.173 2.062 2.042 3.01 4.052 2.312 6.53.23 1.5-1.26 3.882-1.407 5.59-2.49 4.775-3.029 8.707-.478 12.953 2.115.193.71.2.882.207 1.055-.35.09-.7.18-1.689.089-1.538.216-2.436.614-3.334 1.013-.34.08-.679.16-1.704.017-4.227.545-7.768 1.314-11.31 2.084-.32.08-.639.16-1.664-.005-10.906-.029-21.106.19-31.307.408"/><path fill="#b9bbbc" d="M400.604 275.215c.725.684 1.136 1.268 1.537 2.124-9.36-3.073-18.466-7.737-28.104-9.503-23.523-4.31-46.476-2.25-67.763 10.363.786-1.236 1.856-2.146 2.926-3.056 1.15-.498 2.3-.996 4.028-1.806 5.725-2.52 10.873-4.727 16.021-6.935.695-.059 1.39-.118 2.832-.204 2.803-.379 4.857-.73 6.911-1.083 3.056-.32 6.112-.64 10.056-.965 5.92.164 10.952.332 15.985.5 1.055.136 2.111.272 3.908.435 1.846.286 2.952.546 4.059.806.444.073.888.146 2.05.239 7.756 2.387 14.796 4.755 21.835 7.124 1.135.62 2.271 1.24 3.72 1.961M408.162 277.463c4.153-4.637 8.546-9.345 13.127-13.862 4.135-4.077 8.475-7.945 13.36-12.496-14.383-13.304-31.696-18.151-50.235-21.123-.86-.019-1.305-.064-2.446-.267-3.117-.37-5.539-.58-7.96-.792a4 4 0 0 1-.94-.8c14.974-.55 29.113 3.363 42.865 9.094 7.578 3.158 14.381 7.424 20.848 13.98-9.646 8.958-18.972 17.618-28.62 26.266M292.919 239.814c-1.5.53-3 1.058-5.085 1.904-2.355 1.14-4.155 1.907-5.89 2.798-4.725 2.425-9.422 4.902-14.13 7.358 10.204-5.298 19.997-11.702 30.695-15.667 23.279-8.629 47.58-11.419 72.644-8.819-.91.408-2.081.534-4.166.601-12.602.614-24.291 1.286-35.98 1.959-1.499.13-2.997.262-5.195.65-2.737.65-4.775 1.043-6.813 1.435-2.489.462-4.977.924-8.149 1.657a3351 3351 0 0 1-17.931 6.124M576.093 294.359c1.478 7.291-.052 9.487-6.908 9.497-23.403.035-46.807.024-70.21-.016-5.876-.01-6.322-.682-5.034-6.484.604-2.724 1.152-5.46 2.041-8.36-.042 4.062-.4 8.293-.785 12.849h78.982c.574-2.422 1.138-4.8 1.914-7.486"/><path fill="#f8f9f9" d="M258.946 409.27c.984-.27 2.146-1.018 2.92-.728 3.576 1.336 6.842 2.067 10.238-.748.642-.533 3.726.451 4.305 1.498 4.537 8.196 11.952 8.16 19.626 7.128 4.736-.636 8.47.299 10.485 5.089-4.59.218-8.79.047-12.992-.124-.337.028-.675.057-1.46-.36-1.458-.533-2.467-.621-3.476-.71-.356.012-.713.023-1.523-.368-1.124-.485-1.792-.567-2.461-.648-.364-.007-.727-.013-1.542-.435-8.342-3.474-16.23-6.534-24.12-9.594"/><path fill="#ae7c35" d="M309.708 461.495c-.725.587-1.9 1.358-3.077 1.362-23.33.064-46.662.045-69.992.008-.79-.001-1.58-.367-2.586-.865.753-.446 1.722-.717 2.691-.718 24.172-.004 48.343.02 72.964.213"/><path fill="#b9bbbc" d="M557.132 397.363c.367 1.11.65 2.526.584 3.926-.058 1.262-.498 2.506-1.023 4.93 8.67-2.564 16.53-4.782 24.32-7.22 8.386-2.623 16.64-5.697 25.085-8.103 5.272-1.502 9.555-3.374 9.965-9.89.984 5.055-.459 8.272-6.227 9.977-16.513 4.88-32.824 10.441-49.225 15.7-1.512.486-3.103.726-5.518 1.275.693-3.958 1.248-7.127 2.039-10.595M236.761 283.89c-1.66 2.756-3.318 5.512-5.311 8.824-3.698 8.8-7.062 17.044-10.426 25.288-.319 1.423-.638 2.847-1.088 5.023a1598 1598 0 0 0-1.676 15c-.036 1.705-.07 3.41-.117 5.92-.225 2.515-.44 4.225-.655 5.935.174-8.555-.545-17.244.716-25.635 2.329-15.503 9.016-29.457 18.384-42.037.33.735.252 1.208.173 1.681"/><path fill="#ae7c35" d="M97.687 448.035c-10.684-1.98-21.687-3.981-32.544-6.586-8.822-2.117-17.469-4.96-27.422-7.836 1.657 1.803 2.459 2.676 3.318 3.864-4.282-1.819-8.622-3.954-12.962-6.089l.546-1.243c22.937 5.87 45.873 11.74 69.064 17.89m-61.475-14.81-.54.38c.257-.026.515-.052.54-.38"/><path fill="#f8f9f9" d="M217.428 350.211c.275-2.041.49-3.751.779-5.845 1.175.721 3.049 1.703 3.246 2.95.856 5.419 1.229 10.915 1.765 16.385.095.967-.171 2.099.241 2.885 2.894 5.512 5.964 10.931 8.853 16.445.367.701.012 1.78-.574 2.68-6.16-6.792-9.492-14.586-11.197-23.186-.716-3.61-1.95-7.116-2.947-10.67a9.6 9.6 0 0 1-.166-1.644"/><path fill="#b9bbbc" d="M561.81 338.582c1.996-.455 4.232-.67 7.483-.984-1.012 5.566-1.87 10.308-2.736 15.05-1.922 10.531-3.82 21.067-5.8 31.587-.3 1.59-.997 3.105-1.83 4.79 1.89-12.324 4.105-24.782 6.312-37.24.71-4.01 1.402-8.025 2.166-12.404-2.199-.23-3.777-.394-5.595-.799"/><path fill="#b68239" d="M537.23 442.51c5.79-2.771 11.976-5.405 18.097-8.18 12.09-5.48 24.14-11.044 36.214-16.556 1.5-.685 3.05-1.264 4.945-1.875-8.57 4.66-17.317 9.734-26.498 13.834-10.597 4.732-21.578 8.605-32.758 12.777"/><path fill="#ae7c35" d="M259.365 483.917c.318-.495.927-.897 1.535-.896 18.127.03 36.253.1 54.705.409-.265.487-.854.945-1.443.944-18.169-.03-36.338-.106-54.797-.457"/><path fill="#f8f9f9" d="M340.693 382.283c.362.432.539.676 1.11.906-2.497 5.022-7.531 6.715-12.432 4.799-3.302-1.291-6.861-1.908-10.24-3.023-1.112-.366-2.02-1.346-2.682-2.411 3.722-.307 7.104-.248 10.487-.19 2.03-.042 4.062-.085 6.591.262 1.866.216 3.234.04 4.601-.134.733-.088 1.466-.176 2.565-.209"/><path fill="#b9bbbc" d="M217.41 352.256c1.182 3.153 2.415 6.66 3.13 10.27 1.706 8.599 5.039 16.393 10.892 23.366.925 1.314 1.59 2.445 2.574 4.143 2.589 3.194 4.858 5.82 7.127 8.446-9.573-6.32-15.042-15.857-19.126-26.032-2.501-6.233-3.246-13.172-4.597-20.193M476.791 387.635c.586-6.185 1.264-12.674 2.274-19.112 1.305-8.328 2.736-16.644 4.43-24.9.413-2.01 2.067-3.766 3.525-5.476-1.25 6.795-3.066 13.386-4.452 20.067-2.009 9.68-3.706 19.424-5.777 29.421"/><path fill="#f8f9f9" d="M259.95 258.892c.55 4.612-.046 8.436-5.196 10.475-1.313.52-1.771 3.2-2.853 5.345-2.371.365-5.28.813-8.457.94.941-2.197 2.152-4.073 3.362-5.948.637-.767 1.274-1.534 2.496-2.448 1.662-1.398 2.74-2.649 3.817-3.9.383-.42.767-.841 1.757-1.323 2.095-1.087 3.584-2.114 5.073-3.141"/><path fill="#b9bbbc" d="M366.275 419.248c-.294-.32-.3-.492-.28-.921 2.849-1.088 5.671-1.919 9.159-3.01 4.725-1.62 8.786-2.977 13.136-4.353.81-.243 1.33-.47 2.228-.757 4.411-1.845 8.443-3.628 12.804-5.499 3.128-1.597 5.928-3.107 8.728-4.618 1.124-.374 2.248-.747 3.725-1.064-11.369 8.37-24.77 12.947-38.249 17.324-3.604 1.17-7.307 2.038-11.251 2.898M293.802 421.64c3.928-.084 8.129.087 12.772.21 2.833.283 5.224.615 8.01.902 10.597-.263 20.797-.482 31.46-.515-12.078.626-24.616 1.286-37.159 1.4-4.93.046-9.873-1.126-15.083-1.998M496.85 286.646c.543-5.85 1.126-12.016 2.182-18.1 1.693-9.751 3.699-19.447 5.894-29.38-1.823 12.66-3.95 25.537-6.12 38.407-.496 2.943-1.132 5.862-1.956 9.073M616.84 378.648c.538-5.862 1.123-12.036 2.181-18.127 1.695-9.758 3.705-19.46 5.916-29.38-1.837 12.85-3.994 25.896-6.194 38.935-.469 2.78-1.092 5.532-1.903 8.572M436.109 320.337c-.543 5.324-1.145 10.958-2.147 16.52-1.805 10.024-3.85 20.005-6.131 30.142 1.556-11.196 3.396-22.541 5.367-33.863.732-4.201 1.772-8.35 2.91-12.8"/><path fill="#f8f9f9" d="M267.6 251.933c4.922-2.515 9.62-4.992 14.343-7.417 1.736-.891 3.536-1.658 5.662-2.548-.003 3.597-2.147 5.372-5.652 6.124-1.29.277-2.778 1.254-3.485 2.356-3.539 5.506-5.195 6.27-12.185 4.345.233-1.18.53-1.817.829-2.453 0 0 .274-.348.488-.407"/><path fill="#b9bbbc" d="M276.73 324.277c.923-4.982 1.08-10.75 3.47-15.36 3.834-7.397 9.148-14.028 14.17-21.002-4.525 8.364-9.602 16.633-14.127 25.193-1.74 3.292-2.223 7.249-3.513 11.169M258.632 409.162c8.203 3.168 16.092 6.228 24.181 9.595-14.888-1.97-28.005-8.528-39.804-18.4.377-.317.807-.304 1.75.06 3.74 2.463 6.967 4.576 10.194 6.69a100 100 0 0 0 3.68 2.055M326.606 382.15c-3.053.156-6.435.097-10.22.05-1.822-.341-3.24-.695-5.368-1.19-6.153-2.706-11.595-5.27-17.037-7.833 0 0-.428-.15-.651-.189-.65-.666-1.078-1.294-1.496-2.208 3.345 1.518 6.496 3.936 10.053 5.002 8.023 2.406 16.247 4.143 24.719 6.368"/><path fill="#ae7c35" d="M142.681 455.015c-5.038-.163-10.383-.35-15.65-1.09-6.97-.98-13.881-2.39-21.01-3.904 7.61.729 15.416 1.72 23.214 2.774 4.399.595 8.783 1.297 13.446 2.22M390.268 477.397c6.43-1.565 13.152-3.046 19.92-4.282 4.374-.8 8.814-1.24 13.493-1.606-8.41 1.897-17.081 3.596-25.771 5.196-2.415.445-4.885.595-7.642.692"/><path fill="#b9bbbc" d="M285.467 363.82c-2.766-4.312-6.077-8.732-8.118-13.676-1.578-3.823-1.565-8.303-2.016-12.772 1.926 5.852 3.356 12.07 5.4 18.08.979 2.882 3.12 5.368 4.734 8.368"/><path fill="#ae7c35" d="M149.731 472.756c2.185-.092 4.65-.09 7.056.285a505 505 0 0 1 22.185 3.949c-9.53-1.134-19.258-2.552-29.24-4.234M533.791 429.559c-4.556 1.791-9.415 3.75-14.436 5.104-5.878 1.585-11.898 2.643-18.099 3.699 10.56-3.122 21.36-6.013 32.535-8.803M494.654 439.34a621 621 0 0 1-22.012 5.574c-2.072.486-4.233.591-6.774.694 9.18-2.24 18.781-4.304 28.786-6.268M567.778 419.421c-3.346 1.626-6.962 3.532-10.807 4.663-6.613 1.946-13.37 3.408-20.48 5.024 10.03-3.284 20.472-6.52 31.287-9.687"/><path fill="#f8f9f9" d="M308.844 274.972c-.714 1.081-1.784 1.991-2.917 3.194-.17.43-.277.568-.985.732-2.708 1.404-4.814 2.783-6.92 4.161-.046-7.727 2.472-9.714 10.822-8.087"/><path fill="#ae7c35" d="M221.64 460.95c-6.572.25-13.488.285-20.604.003 6.62-.284 13.441-.25 20.605-.003M100.705 461.755a375 375 0 0 1 22.298 5.338c-7.25-1.49-14.66-3.277-22.298-5.338M448.216 467.476c6.545-1.886 13.472-3.611 20.826-5.206-6.53 1.876-13.488 3.62-20.826 5.206"/><path fill="#b68239" d="M514.22 450.406a338 338 0 0 1 19.804-7.197c-6.206 2.494-12.823 4.887-19.805 7.197"/><path fill="#f8f9f9" d="M241.302 398.698c-2.438-2.843-4.707-5.47-7.094-8.402 7.215-.12 9.418 2.092 7.97 8.314-.34.33-.523.318-.876.088"/><path fill="#ae7c35" d="M438.754 449.508a225 225 0 0 1-18.427 2.953c5.811-1.204 11.915-2.158 18.427-2.953M70.755 451.637a311 311 0 0 1 19.261 6.423c-6.254-1.85-12.662-3.991-19.26-6.423M335.7 460.477c-5.048.502-10.552.854-16.37.939 5.096-.54 10.505-.815 16.37-.94"/><path fill="#b68239" d="M492.254 456.597a221 221 0 0 1 16.935-5.19c-5.243 1.863-10.897 3.578-16.935 5.19"/><path fill="#ae7c35" d="M43.208 439.259a196 196 0 0 1 14.874 6.792c-4.841-1.958-9.787-4.222-14.874-6.792M241.372 482.936c4.595-.218 9.5-.183 14.592.178-4.636.242-9.459.159-14.592-.178"/><path fill="#b68239" d="M610.245 408.711c3.829-2.874 8.01-5.73 12.555-8.596-3.825 2.866-8.014 5.74-12.555 8.596M612.792 401.531c-4.401 2.243-9.16 4.429-14.305 6.575 4.39-2.236 9.169-4.434 14.305-6.575"/><path fill="#ae7c35" d="M321.3 483.551c3.77-.594 7.884-.973 12.317-1.108-3.778.604-7.875.963-12.317 1.108M351.682 459.314c-3.7.572-7.852 1.006-12.317 1.189 3.746-.61 7.806-.969 12.317-1.19"/><path fill="#b9bbbc" d="M297.883 283.314c2.245-1.633 4.351-3.012 6.81-4.339-2.154 2.231-4.66 4.41-7.502 6.61-.038-.66.258-1.338.692-2.271M348.27 422.51c3.223-.976 6.764-1.745 10.732-2.345-3.187.963-6.8 1.758-10.732 2.346"/><path fill="#ae7c35" d="M417.724 452.376a92 92 0 0 1-11.382 2.172c3.464-.925 7.212-1.608 11.382-2.172M385.595 456.373c-5.074.877-10.553 1.57-16.299 2.028 5.12-.893 10.507-1.552 16.299-2.028M581.756 414.28c-3.677 1.69-7.728 3.296-12.168 4.872a147 147 0 0 1 12.168-4.871"/><path fill="#f8f9f9" d="M237.189 283.925c-.35-.509-.27-.982-.274-1.806-.083-.351.035-.763.545-.906 1.135-1.22 1.76-2.299 2.383-3.377 0 0 .15.134.367.08.733-.363 1.25-.671 1.765-.98-.279 3.07 1.468 7.397-4.786 6.989"/><path fill="#ae7c35" d="M181.342 477.968c4.863.125 10.01.543 15.564 1.144a191 191 0 0 1-15.564-1.144M356.284 481.358c4.166-.846 8.638-1.5 13.415-1.942-4.166.854-8.637 1.494-13.415 1.942M373.388 479.564c4.43-.958 9.248-1.757 14.506-2.422-4.413.95-9.265 1.764-14.506 2.422"/><path fill="#b9bbbc" d="M242.064 276.724c-.605.52-1.12.83-1.938 1.137 1.801-2.68 3.903-5.358 6.343-8.097-.873 1.815-2.084 3.69-3.454 5.87-.458.419-.692.61-.951 1.09"/><path fill="#b68239" d="M596.677 408.267c-2.874 1.588-6.115 3.092-9.748 4.508 2.865-1.589 6.123-3.09 9.748-4.508"/><path fill="#ae7c35" d="M365.578 458.33a90 90 0 0 1-11.242 1.174c3.41-.61 7.108-.965 11.242-1.175M198.65 460.023c-2.854.205-6.01.15-9.422-.15 2.87-.2 5.994-.155 9.422.15M224.347 481.95c2.559-.238 5.412-.237 8.49.106-2.582.273-5.39.204-8.49-.105"/><path fill="#8c6438" d="m628.922 394.392 4.98-3.352 1.025 1.206c-1.66 1.352-3.318 2.703-5.42 3.608-.49-.785-.538-1.124-.585-1.462"/><path fill="#ae7c35" d="M184.655 458.97c-2.825.154-5.952.048-9.37-.274 2.827-.14 5.947-.063 9.37.273M172.653 458.017c-2.82.14-5.941.022-9.36-.302 2.822-.124 5.94-.04 9.36.302"/><path fill="#b68239" d="M599.26 414.773c2.192-1.589 4.74-3.141 7.668-4.643-2.185 1.594-4.747 3.137-7.667 4.643"/><path fill="#b9bbbc" d="M266.772 252.323c.042.653-.256 1.29-.701 2.151-1.615.988-3.083 1.75-4.904 2.456 1.52-1.578 3.393-3.101 5.605-4.607"/><path fill="#ae7c35" d="M344.284 482.382c2.155-.524 4.626-.86 7.41-.973-2.156.536-4.625.848-7.41.973M206.932 480.59a62 62 0 0 1 9.838.32c-2.99.183-6.246.04-9.838-.32M462.775 445.541c-2.32.845-4.926 1.51-7.94 2.012 2.28-.839 4.966-1.515 7.94-2.012"/><path fill="#b9bbbc" d="M291.063 369.594c-1.646-1.107-3.356-2.542-5.038-4.329 1.677 1.1 3.326 2.55 5.038 4.33"/><path fill="#b68239" d="M628.572 394.467c.397.263.444.602.587 1.448-.077.712-.274.891-.966 1.177-.693.435-.915.738-1.137 1.04-.758.35-1.517.7-2.6 1.063-.37-.521-.417-1.057-.483-1.995 1.403-1.154 2.826-1.905 4.6-2.733"/><path fill="#b9bbbc" d="M260.009 258.63c-1.549 1.289-3.038 2.316-4.868 3.292 1.214-1.556 2.771-3.062 4.652-4.583.308.334.292.682.216 1.292"/><path fill="#ae7c35" d="M395.636 455.307c-1.75.606-3.89 1.053-6.292 1.284 1.793-.626 3.847-1.034 6.292-1.284"/><path fill="#b9bbbc" d="M275.768 331.652c-.199-1.594-.179-3.45.153-5.502.23 1.616.148 3.428-.153 5.502"/><path fill="#ae7c35" d="M433.206 470.308c2.168-.745 4.709-1.372 7.498-1.784-2.21.778-4.668 1.34-7.498 1.784"/><path fill="#b9bbbc" d="M252.803 263.36c-.762 1.247-1.84 2.498-3.242 3.739.758-1.251 1.843-2.493 3.242-3.738"/><path fill="#ae7c35" d="M402.786 454.38c-1.173.555-2.713.96-4.493 1.135 1.214-.583 2.67-.934 4.493-1.136M159.682 456.943c-1.545.143-3.377.031-5.455-.295 1.558-.129 3.364-.044 5.455.295M445.652 448.443c-1.158.541-2.665.92-4.383 1.083 1.203-.558 2.618-.902 4.383-1.083M151.683 456.02c-1.023.223-2.31.192-3.725-.113 1.07-.23 2.266-.185 3.725.113"/><path fill="#b9bbbc" d="M337.731 382.3c-.97.367-2.338.542-3.778.415 1.079-.404 2.23-.505 3.778-.415"/><path fill="#ae7c35" d="M426.181 471.481c.876-.499 2.097-.859 3.536-1.005-.918.524-2.054.834-3.536 1.005M64.315 449.196c1.34.141 2.861.568 4.558 1.292-1.342-.136-2.858-.571-4.558-1.292"/><path fill="#b9bbbc" d="M239.53 277.895c-.31 1.02-.935 2.097-1.896 3.192.302-1.033.942-2.082 1.895-3.192"/><path fill="#ae7c35" d="M198.852 479.64c1.361-.172 2.996-.152 4.898.175-1.364.21-2.995.113-4.898-.176"/><path fill="#b9bbbc" d="M558.147 392.3c.185.763.103 1.75-.261 2.798-.19-.816-.098-1.695.261-2.798M288.752 420.557c.849-.153 1.858-.065 3.082.36-.83.185-1.876.034-3.082-.36M361.188 420.367c.675-.563 1.573-.961 2.84-1.213-.626.558-1.622.968-2.84 1.213"/><path fill="#ae7c35" d="M103.743 449.003c-.659.192-1.54.134-2.591-.113.675-.172 1.522-.155 2.59.113M129.243 469.007c.703-.156 1.606-.033 2.66.313-.72.137-1.59.052-2.66-.313M443.273 468.516c.588-.498 1.482-.843 2.527-.983-.64.515-1.43.826-2.527.983M452.015 447.536c-.684.476-1.628.79-2.777.88.702-.496 1.61-.77 2.777-.88M140.164 470.939c.48-.238 1.07-.256 1.76-.026-.484.247-1.067.247-1.76.026M146.156 472.003c.481-.245 1.082-.272 1.781-.043-.488.257-1.075.26-1.78.043"/><path fill="#b9bbbc" d="M402.885 278.364c.603-.072 1.239.127 2.025.646-.564.088-1.278-.144-2.025-.646"/><path fill="#ae7c35" d="M60.69 447.673c.627-.097 1.419.075 2.335.552-.641.109-1.406-.088-2.336-.552"/><path fill="#b9bbbc" d="M284.697 419.534c.58-.154 1.248-.072 2.124.305-.54.174-1.288.052-2.124-.305"/><path fill="#ae7c35" d="M125.207 468.085c.47-.248 1.128-.239 1.875-.001-.503.239-1.096.25-1.875.001M92.197 459.056c.497-.193 1.159-.112 1.887.216-.53.184-1.126.122-1.887-.216"/><path fill="#b68239" d="M620.716 398.135c-.415.407-1.14.735-2.178 1.03.414-.392 1.141-.75 2.178-1.03"/><path fill="#ae7c35" d="M476.27 460.875c.256-.353.822-.598 1.702-.745-.255.35-.824.602-1.702.745M218.897 481.56q.555-.408 1.87-.2-.556.41-1.87.2M485.236 458.603c.21-.351.682-.563 1.417-.72-.209.323-.682.59-1.417.72M497.757 438.522c-.21.331-.657.513-1.346.642.207-.299.659-.546 1.346-.642"/><path fill="#b68239" d="M608.224 409.858c-.043-.279.187-.531.684-.772.041.273-.186.536-.684.772"/><path fill="#ae7c35" d="M481.189 459.538c-.016-.423.257-.554.823-.447-.056.253-.332.42-.823.447"/><path fill="#8c6438" d="M627.331 398.063c-.053-.233.17-.536.68-.885.058.24-.173.528-.68.885"/><path fill="#ae7c35" d="M134.212 470.028c.056-.204.35-.271.707-.162-.113.218-.291.258-.707.162"/><path fill="#fefefe" d="M241.004 344.151c.384 2.7.88 4.947 1.132 7.22.344 3.101.805 6.236.672 9.332-.22 5.092-.8 10.173-1.375 15.242-.35 3.088-.839 6.18-1.58 9.192-.187.76-1.592 1.71-2.415 1.689-.809-.02-2.208-1.102-2.282-1.826-.58-5.688-.869-11.406-1.325-17.108-.17-2.128-.772-4.238-.79-6.36-.088-9.858-.04-19.719-.04-29.579l2.105.712 6.915-6.667c1.611 6.209-.848 11.962-1.017 18.153M264 386c-.983-.623-2.686-1.117-2.825-1.892-.612-3.41-1.16-6.917-1.023-10.36.382-9.656 1.22-19.292 1.66-28.946.19-4.208.403-8.551-.414-12.628-.843-4.204 1.19-5.69 5.562-7.826 0 4.783-.024 8.775.007 12.768.031 3.907.088 7.815.188 11.722.197 7.7.68 15.402.556 23.095-.071 4.427-1.098 8.839-2.036 13.662-.786.405-1.23.405-1.675.405M260 290c.34-6.956.609-13.918 1.08-20.865.098-1.422.708-2.975 1.548-4.128.638-.876 2.017-1.212 3.065-1.789.433.975 1.195 1.932 1.248 2.926.428 8.032.869 16.069.993 24.11.056 3.616-.6 7.243-1.318 11.307-1.395.96-2.407 1.478-3.418 1.996L267 306c-.783 2.556-1.566 5.112-2.924 7.834C263.5 314 263 314 263 314c-.995-3.84-2.174-7.643-2.927-11.53-.617-3.18-.726-6.46-.822-10.25.409-1.11.579-1.665.749-2.22M373.011 265.48c-1.118.151-2.224-.109-3.67-.415-5.481-9.986-4.079-20.67-4.374-31.078 7.222-2.04 9.429.029 8.455 6.561-.576 3.869-.093 7.891-.141 11.844-.052 4.226-.17 8.452-.27 13.089M366 406.025l-.001-20.002c5.032-1.495 7.651.449 7.452 5.099-.21 4.9.07 9.87-.7 14.676-.432 2.701-2.555 5.132-4.12 8.067-3.47-1.396-2.4-4.668-2.632-7.84M232.999 294l9.653-7.187c.163 2.125 1.076 4.466.292 5.835-1.555 2.716-1.384 4.763-.596 7.747.818 3.103.103 6.93-1.005 10.064-.445 1.259-3.924 2.41-5.663 2.018-2.55-.573-3.44-2.801-1.462-5.411.622-.82.54-2.173 1.115-3.725.112-1.408-.11-2.375-.333-3.341-.49-.587-.98-1.173-1.735-2.28-.266-1.587-.266-2.653-.266-3.72M345.414 259.482c-1.613-.638-3.869-1.37-4.036-2.43-.48-3.044-1.002-6.613.159-9.24 1.262-2.856.803-4.761-.121-7.339-1.794-5.004.14-8.374 3.876-7.318 1.023.29 2.548 1.664 2.497 2.454-.514 7.888 1.497 16.018-2.375 23.873M310.088 242.44c1.232-1.412 2.408-2.437 3.584-3.461l1.7.515c-.247 3.714-.622 7.426-.685 11.143-.031 1.83 0 3.993.905 5.44 2.178 3.482.987 6.009-1.58 8.322-.771.695-2.403 1.537-2.894 1.205-.943-.636-2.128-2.334-1.855-3.118 1.686-4.839.444-8.742-2.628-11.004 1.366-3.48 2.381-6.067 3.453-9.041M343.456 415.889c4.781-7.985-3.32-14.361-2.888-21.731.093-1.595-.132-3.427.584-4.705.757-1.353 2.462-2.176 3.753-3.23 1.26 1.661 3.537 3.287 3.598 4.992.226 6.31.04 12.684-.69 18.952-.24 2.055-2.606 3.861-4.357 5.722"/><path fill="#f9f9f9" d="M388 410.982c-4.06 1.358-8.12 2.715-12.57 4.096-.4-1.458-.5-2.944-.403-4.417.215-3.246 1.146-5.446 5.222-4.116 6.448 2.104 12.166-1.256 18.115-2.8.948-.247 1.896-.487 3.472-.59.804.64.98 1.14 1.157 1.64-4.032 1.784-8.064 3.567-12.638 5.144-1.146.21-1.75.627-2.354 1.043"/><path fill="#f8f9f9" d="M331.011 230.326c11.685-1.05 23.374-1.723 35.528-2.325-3.47 4.447-9.128 5.97-14.089 4.228-5.199-1.825-10.3-4.493-15.529.627-2.113 2.068-5.026 1.595-5.91-2.53"/><path fill="#fefefe" d="M267 388v18.425l-1.556.853c-1.427-1.785-3.99-3.53-4.056-5.364-.159-4.451-2.562-9.582 2.81-13.585C265.5 388 266.25 388 267 388M293 401c0 .444 0 .889-.245 1.834-.415 1.056-.585 1.611-.755 2.166l-4.22 3.693c-.248-1.78-.703-3.558-.704-5.337-.001-3.926.226-7.851.389-12.633 4.395 1.993 7.793 3.054 5.51 8.073-.89.689-1.208 1.096-1.527 1.503z"/><path fill="#f8f9f9" d="M396.895 272.871c-7.05-1.986-14.089-4.354-21.507-6.75.812-1.032 2.132-3.005 3.169-2.866 3.982.535 8.134 1.196 11.713 2.89 2.625 1.242 4.453 4.168 6.625 6.726M232.84 293.74c.159 1.327.159 2.393.158 3.86-2.679 6.154-5.273 11.95-8.11 17.625-.567 1.136-2.063 1.807-3.498 2.735 2.998-8.202 6.362-16.446 9.981-24.893.606.002.957.207 1.468.673M293.994 373.538c5.43 2.202 10.871 4.766 16.661 7.44-4.322 4.661-12.204 3.46-14.575-2.162-.692-1.639-1.382-3.278-2.086-5.278"/><path fill="#fefefe" d="M315 401c.188 3.92.532 7.844.429 11.756-.02.742-2.077 2.207-2.72 1.982-1.092-.381-2.613-1.911-2.534-2.837.291-3.388 1.167-6.726 2.199-10.492C313.5 401 314.25 401 315 401"/><path fill="#f8f9f9" d="M365.01 264.314c-5.01.168-10.042 0-15.536-.189.685-5.807 6.897-2.947 9.67-5.957 1.948 1.937 3.896 3.873 5.866 6.146M293.151 240.123c5.518-2.26 11.267-4.211 17.409-6.203-3.27 5.961-10.094 8.507-17.409 6.203"/><path fill="#fefefe" d="M315 400.625c-.75.375-1.5.375-2.667.055-1.056-.774-1.694-1.227-2.333-1.68.14-2.812.28-5.625 1.032-8.745A37 37 0 0 0 314 388c.667 2.063 1.333 4.127 1.738 6.801-.42 1.474-.58 2.337-.738 3.199z"/><path fill="#f8f9f9" d="M349.056 383.513c5.664-1.446 11.392-2.517 17.529-3.594-5.008 6.484-12.87 8.233-17.529 3.594M329.004 266.06c-4.903 2.55-10.051 4.757-15.557 7.052 1.768-5.709 8.47-8.909 15.557-7.051M218.624 338.003c.15-4.727.665-9.476 1.28-14.614 3.947 3.18 3.381 11.536-1.28 14.614M254.969 406.677c-3.243-1.684-6.47-3.797-9.893-6.171 6.05-3.26 9.834-1.012 9.893 6.17M338.957 264.736c-2.019.731-4.073 1.083-6.528 1.428.625-2.646 1.652-5.285 3.062-8.909 1.338 2.77 2.385 4.936 3.466 7.481M403.322 404.708c-.506-.413-.682-.914-1.09-1.561-.232-.591-.232-1.036-.232-1.814 3.18-.833 6.36-1.334 9.795-1.539-2.545 1.807-5.345 3.317-8.473 4.914M273.84 275.056c-.805-2.674-1.518-4.98-2.43-7.93 3.926.987 3.926.987 3.967 11.333-.762-1.602-1.102-2.319-1.537-3.403M374.043 229.296c2.386-.162 4.808.05 7.59.42-1.826 4.592-4.398 4.524-7.59-.42M357.863 403.69c-.815-.19-1.374-.258-1.717-.566-.941-.846-1.792-1.794-2.678-2.701 1.421-.177 2.996-.825 4.228-.424 2.009.655 3.193 2.072.167 3.691M319.073 232.392c1.964-.751 4.002-1.144 6.435-1.578-.936 3.765-3.252 4.208-6.435 1.578"/><path fill="#fefefe" d="m291 389-4.38-.312 2.916-4.306c.797.645 1.594 1.29 2.183 2.444-.379 1.064-.549 1.62-.719 2.174"/><path fill="#f8f9f9" d="M252.517 315.36c.394-1.513 1.03-2.758 1.666-4.003l1.628 1.659c-1.017.87-2.034 1.742-3.294 2.345M271.165 402.787c1.007-1.033 2.059-1.7 3.11-2.367l.282 3.197c-1.116-.155-2.232-.31-3.392-.83"/><path fill="#fefefe" d="M267 305.6c-1.267-.414-2.535-1.228-3.802-2.043 1.011-.518 2.023-1.037 3.418-1.556.384 1.066.384 2.132.384 3.599"/><path fill="#f8f9f9" d="M274.744 376.84c-.862.308-1.645.278-2.427.248l.45-1.692c.685.369 1.37.738 1.977 1.444M336.45 409.564c-.035.83-.298 1.426-.562 2.023l-1.468-1.485c.6-.257 1.2-.514 2.03-.538M337.147 400.863c-.018.804-.269 1.378-.519 1.951l-1.437-1.433c.575-.25 1.15-.499 1.956-.518M252.47 382.69c.85.254 1.487.751 2.125 1.248l-.94.866c-.467-.625-.933-1.249-1.186-2.115"/><path fill="#fefefe" d="M313.812 387.76c-.598.89-1.384 1.538-2.491 2.214.553-.801 1.428-1.628 2.49-2.215M304.564 245.395c.292-.875.788-1.541 1.285-2.207l.952.977c-.678.48-1.355.96-2.237 1.23M318.499 398.305c.778-.353 1.422-.445 2.066-.536l-.664 1.598c-.512-.267-1.025-.534-1.402-1.062M315.324 397.955c-.165-.817-.006-1.68.414-2.749.145.764.027 1.734-.414 2.749"/><path fill="#f8f9f9" d="M275.013 294.466c.397.583.495 1.161.592 1.74l-1.227-.016c.112-.576.224-1.152.635-1.724"/><path fill="#fefefe" d="M235 300.375c.222.591.445 1.558.334 2.575-.334-.7-.334-1.45-.334-2.575M266.979 387.702c-.729.298-1.479.298-2.604.298-.375-.444-.375-.889-.375-1.667.444-.333.889-.333 1.667-.333.652.468.972.937 1.312 1.702M248.524 361.696c.005.753-.2 1.287-.404 1.82l-.82-.403c.337-.545.675-1.09 1.224-1.417"/><path fill="#f8f9f9" d="M334.209 242.797c.362-.6.786-.9 1.211-1.202l.343 1.335c-.497.055-.994.11-1.554-.133"/><path fill="#fefefe" d="M264.004 315.326c.595.352 1.195 1.03 1.794 1.709l-.87.59c-.307-.657-.613-1.315-.924-2.299M292.292 404.969c-.122-.524.048-1.079.463-1.801.106.478-.032 1.124-.463 1.801M310.042 399.32q.895.2 1.916 1.36-.895-.2-1.916-1.36M293 400.667c-.517.1-1.034-.134-1.552-.368.319-.407.637-.814 1.254-1.26.298.405.298.85.298 1.628M259.708 290.031c.122.524-.048 1.079-.463 1.801-.106-.478.032-1.124.463-1.801"/><path fill="#f8f9f9" d="M272.955 385.602c-.24-.394-.239-.786-.209-1.175 0-.011.305.001.467.003-.004.391-.008.783-.258 1.172"/><path fill="#fefefe" d="M291.292 388.969c-.122-.524.048-1.079.463-1.801.106.478-.032 1.124-.463 1.801M261.955 322.603c-.241-.395-.24-.787-.209-1.177 0-.011.305.001.468.003-.005.392-.009.784-.26 1.174M263.109 314.219c-.109-.219.391-.219.641-.219s.25.5.25.75c-.322.148-.583-.04-.891-.531"/><path fill="#f8f9f9" d="M404.868 370.067c2.262 3.29 4.206 6.731 6.234 10.516-5.014-.444-8.54-6.132-6.234-10.516M375.053 377.402c.737-.635 1.522-.968 2.626-1.331-.646.524-1.612 1.079-2.626 1.331"/><path fill="#f4a93d" d="M36.328 433.376c-.141.177-.399.203-.656.229.18-.127.36-.253.656-.229"/><path fill="#f8f9f9" d="M388.29 410.964c.315-.398.92-.815 1.687-.963-.357.494-.877.72-1.687.963"/></svg>
