<?xml version="1.0" encoding="UTF-8"?>
<!DOCTYPE svg PUBLIC "-//W3C//DTD SVG Tiny 1.2//EN"
  "http://www.w3.org/Graphics/SVG/1.2/DTD/svg12-tiny.dtd">
<svg xmlns="http://www.w3.org/2000/svg"
     version="1.2"
     baseProfile="tiny"
     width="600"
     height="600"
     viewBox="0 0 600 600">

  <!-- Background (solid black) -->
  <rect x="0" y="0" width="600" height="600" fill="#000000"/>

  <!-- CCH Letters (white) -->
  <path fill="#FFFFFF" d="
    M140 300
    C140 220 200 170 280 170
    L280 215
    C225 215 190 245 190 300
    C190 355 225 385 280 385
    L280 430
    C200 430 140 380 140 300
    Z"/>

  <path fill="#FFFFFF" d="
    M300 300
    C300 220 360 170 440 170
    L440 215
    C385 215 350 245 350 300
    C350 355 385 385 440 385
    L440 430
    C360 430 300 380 300 300
    Z"/>

  <path fill="#FFFFFF" d="
    M460 170
    L510 170
    L510 430
    L460 430
    Z"/>

  <!-- Orange swoosh -->
  <path fill="#F5A623" d="
    M180 410
    C260 445 360 445 440 410
    L440 435
    C360 470 260 470 180 435
    Z"/>

</svg>
